<mxfile host="app.diagrams.net" agent="Mozilla/5.0 (Windows NT 10.0; Win64; x64) AppleWebKit/537.36 (KHTML, like Gecko) Chrome/126.0.0.0 Safari/537.36" version="24.7.4" pages="2">
  <diagram name="Page-1" id="t-keU7qonHVR9CO4EsGE">
    <mxGraphModel dx="1435" dy="706" grid="1" gridSize="10" guides="1" tooltips="1" connect="1" arrows="1" fold="1" page="1" pageScale="1" pageWidth="827" pageHeight="1169" math="0" shadow="0">
      <root>
        <mxCell id="0" />
        <mxCell id="1" parent="0" />
        <mxCell id="8qcISal-hsTOiyEhlamu-47" style="edgeStyle=orthogonalEdgeStyle;shape=link;rounded=0;orthogonalLoop=1;jettySize=auto;html=1;exitX=0.5;exitY=1;exitDx=0;exitDy=0;entryX=0.5;entryY=0;entryDx=0;entryDy=0;" edge="1" parent="1" source="8qcISal-hsTOiyEhlamu-2" target="8qcISal-hsTOiyEhlamu-24">
          <mxGeometry relative="1" as="geometry" />
        </mxCell>
        <mxCell id="8qcISal-hsTOiyEhlamu-2" value="Dnevnik prehrane" style="rounded=0;whiteSpace=wrap;html=1;" vertex="1" parent="1">
          <mxGeometry x="354" y="140" width="120" height="60" as="geometry" />
        </mxCell>
        <mxCell id="8qcISal-hsTOiyEhlamu-36" style="edgeStyle=orthogonalEdgeStyle;rounded=0;orthogonalLoop=1;jettySize=auto;html=1;shape=link;" edge="1" parent="1" source="8qcISal-hsTOiyEhlamu-12">
          <mxGeometry relative="1" as="geometry">
            <mxPoint x="80" y="760" as="targetPoint" />
          </mxGeometry>
        </mxCell>
        <mxCell id="8qcISal-hsTOiyEhlamu-45" style="edgeStyle=orthogonalEdgeStyle;shape=link;rounded=0;orthogonalLoop=1;jettySize=auto;html=1;exitX=1;exitY=0.5;exitDx=0;exitDy=0;entryX=0;entryY=0.5;entryDx=0;entryDy=0;" edge="1" parent="1" source="8qcISal-hsTOiyEhlamu-12" target="8qcISal-hsTOiyEhlamu-24">
          <mxGeometry relative="1" as="geometry" />
        </mxCell>
        <mxCell id="8qcISal-hsTOiyEhlamu-12" value="Korsinik" style="rounded=0;whiteSpace=wrap;html=1;" vertex="1" parent="1">
          <mxGeometry x="100" y="270" width="120" height="60" as="geometry" />
        </mxCell>
        <mxCell id="8qcISal-hsTOiyEhlamu-46" style="edgeStyle=orthogonalEdgeStyle;shape=link;rounded=0;orthogonalLoop=1;jettySize=auto;html=1;exitX=1;exitY=0.5;exitDx=0;exitDy=0;entryX=0;entryY=0.5;entryDx=0;entryDy=0;" edge="1" parent="1" source="8qcISal-hsTOiyEhlamu-24" target="8qcISal-hsTOiyEhlamu-25">
          <mxGeometry relative="1" as="geometry" />
        </mxCell>
        <mxCell id="8qcISal-hsTOiyEhlamu-48" style="edgeStyle=orthogonalEdgeStyle;shape=link;rounded=0;orthogonalLoop=1;jettySize=auto;html=1;exitX=0;exitY=0.5;exitDx=0;exitDy=0;" edge="1" parent="1" source="8qcISal-hsTOiyEhlamu-24">
          <mxGeometry relative="1" as="geometry">
            <mxPoint x="320" y="760.7999877929688" as="targetPoint" />
          </mxGeometry>
        </mxCell>
        <mxCell id="8qcISal-hsTOiyEhlamu-24" value="Administrator" style="rounded=0;whiteSpace=wrap;html=1;" vertex="1" parent="1">
          <mxGeometry x="354" y="270" width="120" height="60" as="geometry" />
        </mxCell>
        <mxCell id="8qcISal-hsTOiyEhlamu-54" style="edgeStyle=orthogonalEdgeStyle;shape=link;rounded=0;orthogonalLoop=1;jettySize=auto;html=1;exitX=0;exitY=0.5;exitDx=0;exitDy=0;" edge="1" parent="1" source="8qcISal-hsTOiyEhlamu-25">
          <mxGeometry relative="1" as="geometry">
            <mxPoint x="560" y="765.5999755859375" as="targetPoint" />
          </mxGeometry>
        </mxCell>
        <mxCell id="8qcISal-hsTOiyEhlamu-25" value="Vlasnik sustava" style="rounded=0;whiteSpace=wrap;html=1;" vertex="1" parent="1">
          <mxGeometry x="600" y="270" width="120" height="60" as="geometry" />
        </mxCell>
        <mxCell id="8qcISal-hsTOiyEhlamu-39" style="edgeStyle=orthogonalEdgeStyle;shape=link;rounded=0;orthogonalLoop=1;jettySize=auto;html=1;" edge="1" parent="1">
          <mxGeometry relative="1" as="geometry">
            <mxPoint x="150" y="549.5" as="targetPoint" />
            <mxPoint x="80" y="550" as="sourcePoint" />
            <Array as="points">
              <mxPoint x="110" y="549.5" />
              <mxPoint x="110" y="550.5" />
            </Array>
          </mxGeometry>
        </mxCell>
        <mxCell id="8qcISal-hsTOiyEhlamu-27" value="Registracija i prijava" style="rounded=1;whiteSpace=wrap;html=1;arcSize=43;" vertex="1" parent="1">
          <mxGeometry x="150" y="360" width="120" height="60" as="geometry" />
        </mxCell>
        <mxCell id="8qcISal-hsTOiyEhlamu-28" value="Unos obroka" style="rounded=1;whiteSpace=wrap;html=1;arcSize=43;" vertex="1" parent="1">
          <mxGeometry x="150" y="440" width="120" height="60" as="geometry" />
        </mxCell>
        <mxCell id="8qcISal-hsTOiyEhlamu-29" value="Praćenje ciljeva" style="rounded=1;whiteSpace=wrap;html=1;arcSize=43;" vertex="1" parent="1">
          <mxGeometry x="150" y="520" width="120" height="60" as="geometry" />
        </mxCell>
        <mxCell id="8qcISal-hsTOiyEhlamu-30" value="Dnevni i tjedni izvještaji" style="rounded=1;whiteSpace=wrap;html=1;arcSize=43;" vertex="1" parent="1">
          <mxGeometry x="150" y="600" width="120" height="60" as="geometry" />
        </mxCell>
        <mxCell id="8qcISal-hsTOiyEhlamu-31" value="Praćenje aktivnosti" style="rounded=1;whiteSpace=wrap;html=1;arcSize=43;" vertex="1" parent="1">
          <mxGeometry x="150" y="680" width="120" height="60" as="geometry" />
        </mxCell>
        <mxCell id="8qcISal-hsTOiyEhlamu-32" value="Upravljanje korisnicima" style="rounded=1;whiteSpace=wrap;html=1;arcSize=43;" vertex="1" parent="1">
          <mxGeometry x="400" y="360" width="120" height="60" as="geometry" />
        </mxCell>
        <mxCell id="8qcISal-hsTOiyEhlamu-33" value="Upravljanje bazom podataka hrane" style="rounded=1;whiteSpace=wrap;html=1;arcSize=43;" vertex="1" parent="1">
          <mxGeometry x="400" y="440" width="120" height="60" as="geometry" />
        </mxCell>
        <mxCell id="8qcISal-hsTOiyEhlamu-34" value="Sigurnost sustava" style="rounded=1;whiteSpace=wrap;html=1;arcSize=43;" vertex="1" parent="1">
          <mxGeometry x="400" y="520" width="120" height="60" as="geometry" />
        </mxCell>
        <mxCell id="8qcISal-hsTOiyEhlamu-41" style="edgeStyle=orthogonalEdgeStyle;shape=link;rounded=0;orthogonalLoop=1;jettySize=auto;html=1;" edge="1" parent="1">
          <mxGeometry relative="1" as="geometry">
            <mxPoint x="150" y="469.5" as="targetPoint" />
            <mxPoint x="80" y="470" as="sourcePoint" />
            <Array as="points">
              <mxPoint x="110" y="469.5" />
              <mxPoint x="110" y="470.5" />
            </Array>
          </mxGeometry>
        </mxCell>
        <mxCell id="8qcISal-hsTOiyEhlamu-42" style="edgeStyle=orthogonalEdgeStyle;shape=link;rounded=0;orthogonalLoop=1;jettySize=auto;html=1;" edge="1" parent="1">
          <mxGeometry relative="1" as="geometry">
            <mxPoint x="150" y="389.5" as="targetPoint" />
            <mxPoint x="80" y="390" as="sourcePoint" />
            <Array as="points">
              <mxPoint x="110" y="389.5" />
              <mxPoint x="110" y="390.5" />
            </Array>
          </mxGeometry>
        </mxCell>
        <mxCell id="8qcISal-hsTOiyEhlamu-43" style="edgeStyle=orthogonalEdgeStyle;shape=link;rounded=0;orthogonalLoop=1;jettySize=auto;html=1;" edge="1" parent="1">
          <mxGeometry relative="1" as="geometry">
            <mxPoint x="150" y="629.5" as="targetPoint" />
            <mxPoint x="80" y="630" as="sourcePoint" />
            <Array as="points">
              <mxPoint x="110" y="629.5" />
              <mxPoint x="110" y="630.5" />
            </Array>
          </mxGeometry>
        </mxCell>
        <mxCell id="8qcISal-hsTOiyEhlamu-44" style="edgeStyle=orthogonalEdgeStyle;shape=link;rounded=0;orthogonalLoop=1;jettySize=auto;html=1;" edge="1" parent="1">
          <mxGeometry relative="1" as="geometry">
            <mxPoint x="150" y="709.5" as="targetPoint" />
            <mxPoint x="80" y="710" as="sourcePoint" />
            <Array as="points">
              <mxPoint x="110" y="709.5" />
              <mxPoint x="110" y="710.5" />
            </Array>
          </mxGeometry>
        </mxCell>
        <mxCell id="8qcISal-hsTOiyEhlamu-51" style="edgeStyle=orthogonalEdgeStyle;shape=link;rounded=0;orthogonalLoop=1;jettySize=auto;html=1;" edge="1" parent="1">
          <mxGeometry relative="1" as="geometry">
            <mxPoint x="400" y="389.5" as="targetPoint" />
            <mxPoint x="320" y="390" as="sourcePoint" />
            <Array as="points">
              <mxPoint x="360" y="389.5" />
              <mxPoint x="360" y="390.5" />
            </Array>
          </mxGeometry>
        </mxCell>
        <mxCell id="8qcISal-hsTOiyEhlamu-52" style="edgeStyle=orthogonalEdgeStyle;shape=link;rounded=0;orthogonalLoop=1;jettySize=auto;html=1;" edge="1" parent="1">
          <mxGeometry relative="1" as="geometry">
            <mxPoint x="400" y="469.5" as="targetPoint" />
            <mxPoint x="320" y="470" as="sourcePoint" />
            <Array as="points">
              <mxPoint x="360" y="469.5" />
              <mxPoint x="360" y="470.5" />
            </Array>
          </mxGeometry>
        </mxCell>
        <mxCell id="8qcISal-hsTOiyEhlamu-53" style="edgeStyle=orthogonalEdgeStyle;shape=link;rounded=0;orthogonalLoop=1;jettySize=auto;html=1;" edge="1" parent="1">
          <mxGeometry relative="1" as="geometry">
            <mxPoint x="400" y="549.5" as="targetPoint" />
            <mxPoint x="320" y="550" as="sourcePoint" />
            <Array as="points">
              <mxPoint x="360" y="549.5" />
              <mxPoint x="360" y="550.5" />
            </Array>
          </mxGeometry>
        </mxCell>
        <mxCell id="8qcISal-hsTOiyEhlamu-55" value="Pregled izvještaja" style="rounded=1;whiteSpace=wrap;html=1;arcSize=43;" vertex="1" parent="1">
          <mxGeometry x="630" y="360" width="120" height="60" as="geometry" />
        </mxCell>
        <mxCell id="8qcISal-hsTOiyEhlamu-56" value="Administracija korisnika" style="rounded=1;whiteSpace=wrap;html=1;arcSize=43;" vertex="1" parent="1">
          <mxGeometry x="630" y="440" width="120" height="60" as="geometry" />
        </mxCell>
        <mxCell id="8qcISal-hsTOiyEhlamu-58" style="edgeStyle=orthogonalEdgeStyle;shape=link;rounded=0;orthogonalLoop=1;jettySize=auto;html=1;" edge="1" parent="1">
          <mxGeometry relative="1" as="geometry">
            <mxPoint x="630" y="390" as="targetPoint" />
            <mxPoint x="560" y="390.5" as="sourcePoint" />
            <Array as="points">
              <mxPoint x="600" y="390" />
              <mxPoint x="600" y="391" />
            </Array>
          </mxGeometry>
        </mxCell>
        <mxCell id="8qcISal-hsTOiyEhlamu-59" style="edgeStyle=orthogonalEdgeStyle;shape=link;rounded=0;orthogonalLoop=1;jettySize=auto;html=1;" edge="1" parent="1">
          <mxGeometry relative="1" as="geometry">
            <mxPoint x="630" y="469.5" as="targetPoint" />
            <mxPoint x="560" y="470" as="sourcePoint" />
            <Array as="points">
              <mxPoint x="600" y="469.5" />
              <mxPoint x="600" y="470.5" />
            </Array>
          </mxGeometry>
        </mxCell>
      </root>
    </mxGraphModel>
  </diagram>
  <diagram id="JAvrSwmxnuRPSLicdwiI" name="Page-2">
    <mxGraphModel dx="1050" dy="530" grid="1" gridSize="10" guides="1" tooltips="1" connect="1" arrows="1" fold="1" page="1" pageScale="1" pageWidth="827" pageHeight="1169" math="0" shadow="0">
      <root>
        <mxCell id="0" />
        <mxCell id="1" parent="0" />
        <mxCell id="QxMFWHYsgoYalzhRIhGh-4" style="edgeStyle=orthogonalEdgeStyle;rounded=0;orthogonalLoop=1;jettySize=auto;html=1;entryX=0.5;entryY=1;entryDx=0;entryDy=0;" parent="1" source="QxMFWHYsgoYalzhRIhGh-1" target="QxMFWHYsgoYalzhRIhGh-3" edge="1">
          <mxGeometry relative="1" as="geometry" />
        </mxCell>
        <mxCell id="QxMFWHYsgoYalzhRIhGh-1" value="Korisnik" style="rounded=0;whiteSpace=wrap;html=1;" parent="1" vertex="1">
          <mxGeometry x="354" y="330" width="120" height="60" as="geometry" />
        </mxCell>
        <mxCell id="QxMFWHYsgoYalzhRIhGh-6" style="edgeStyle=orthogonalEdgeStyle;rounded=0;orthogonalLoop=1;jettySize=auto;html=1;entryX=1;entryY=0.5;entryDx=0;entryDy=0;" parent="1" source="QxMFWHYsgoYalzhRIhGh-3" target="QxMFWHYsgoYalzhRIhGh-5" edge="1">
          <mxGeometry relative="1" as="geometry" />
        </mxCell>
        <mxCell id="QxMFWHYsgoYalzhRIhGh-7" value="Prijava" style="edgeLabel;html=1;align=center;verticalAlign=middle;resizable=0;points=[];" parent="QxMFWHYsgoYalzhRIhGh-6" vertex="1" connectable="0">
          <mxGeometry x="0.0082" y="-3" relative="1" as="geometry">
            <mxPoint y="-7" as="offset" />
          </mxGeometry>
        </mxCell>
        <mxCell id="QxMFWHYsgoYalzhRIhGh-3" value="Registracija korisnika" style="rounded=1;whiteSpace=wrap;html=1;" parent="1" vertex="1">
          <mxGeometry x="354" y="210" width="120" height="60" as="geometry" />
        </mxCell>
        <mxCell id="QxMFWHYsgoYalzhRIhGh-11" style="edgeStyle=orthogonalEdgeStyle;rounded=0;orthogonalLoop=1;jettySize=auto;html=1;entryX=0.5;entryY=0;entryDx=0;entryDy=0;" parent="1" source="QxMFWHYsgoYalzhRIhGh-5" target="QxMFWHYsgoYalzhRIhGh-8" edge="1">
          <mxGeometry relative="1" as="geometry" />
        </mxCell>
        <mxCell id="QxMFWHYsgoYalzhRIhGh-5" value="Profil korisnika" style="rounded=1;whiteSpace=wrap;html=1;" parent="1" vertex="1">
          <mxGeometry x="120" y="210" width="120" height="60" as="geometry" />
        </mxCell>
        <mxCell id="QxMFWHYsgoYalzhRIhGh-9" style="edgeStyle=orthogonalEdgeStyle;rounded=0;orthogonalLoop=1;jettySize=auto;html=1;entryX=0;entryY=0.5;entryDx=0;entryDy=0;" parent="1" source="QxMFWHYsgoYalzhRIhGh-8" target="QxMFWHYsgoYalzhRIhGh-1" edge="1">
          <mxGeometry relative="1" as="geometry" />
        </mxCell>
        <mxCell id="QxMFWHYsgoYalzhRIhGh-10" value="Pregled&amp;nbsp; svih&amp;nbsp;&lt;div&gt;dostupnih opcija&lt;/div&gt;" style="edgeLabel;html=1;align=center;verticalAlign=middle;resizable=0;points=[];" parent="QxMFWHYsgoYalzhRIhGh-9" vertex="1" connectable="0">
          <mxGeometry x="-0.0522" y="2" relative="1" as="geometry">
            <mxPoint y="-18" as="offset" />
          </mxGeometry>
        </mxCell>
        <mxCell id="QxMFWHYsgoYalzhRIhGh-8" value="Odabir odgovarajućih funkcija i postavljanje ciljeva" style="rounded=1;whiteSpace=wrap;html=1;" parent="1" vertex="1">
          <mxGeometry x="120" y="330" width="120" height="60" as="geometry" />
        </mxCell>
        <mxCell id="QxMFWHYsgoYalzhRIhGh-12" value="Unos dnevnog unosa hrane" style="rounded=1;whiteSpace=wrap;html=1;" parent="1" vertex="1">
          <mxGeometry x="354" y="460" width="120" height="60" as="geometry" />
        </mxCell>
        <mxCell id="QxMFWHYsgoYalzhRIhGh-13" style="edgeStyle=orthogonalEdgeStyle;rounded=0;orthogonalLoop=1;jettySize=auto;html=1;entryX=0.501;entryY=-0.062;entryDx=0;entryDy=0;entryPerimeter=0;" parent="1" source="QxMFWHYsgoYalzhRIhGh-1" target="QxMFWHYsgoYalzhRIhGh-12" edge="1">
          <mxGeometry relative="1" as="geometry" />
        </mxCell>
        <mxCell id="QxMFWHYsgoYalzhRIhGh-29" style="edgeStyle=orthogonalEdgeStyle;rounded=0;orthogonalLoop=1;jettySize=auto;html=1;entryX=0.5;entryY=1;entryDx=0;entryDy=0;" parent="1" source="QxMFWHYsgoYalzhRIhGh-14" target="QxMFWHYsgoYalzhRIhGh-28" edge="1">
          <mxGeometry relative="1" as="geometry" />
        </mxCell>
        <mxCell id="lK2T8OIMAoVo2WG_MeQW-1" value="Prikaz nutritivnih vrijednosti" style="edgeLabel;html=1;align=center;verticalAlign=middle;resizable=0;points=[];" vertex="1" connectable="0" parent="QxMFWHYsgoYalzhRIhGh-29">
          <mxGeometry x="0.14" y="-2" relative="1" as="geometry">
            <mxPoint y="4" as="offset" />
          </mxGeometry>
        </mxCell>
        <mxCell id="QxMFWHYsgoYalzhRIhGh-14" value="Prepoznavanje hrane iz baze podataka" style="rounded=1;whiteSpace=wrap;html=1;" parent="1" vertex="1">
          <mxGeometry x="560" y="330" width="120" height="60" as="geometry" />
        </mxCell>
        <mxCell id="QxMFWHYsgoYalzhRIhGh-26" style="edgeStyle=orthogonalEdgeStyle;rounded=0;orthogonalLoop=1;jettySize=auto;html=1;" parent="1" source="QxMFWHYsgoYalzhRIhGh-18" target="QxMFWHYsgoYalzhRIhGh-14" edge="1">
          <mxGeometry relative="1" as="geometry" />
        </mxCell>
        <mxCell id="QxMFWHYsgoYalzhRIhGh-27" value="Automatski unos&lt;div&gt;podataka&lt;/div&gt;" style="edgeLabel;html=1;align=center;verticalAlign=middle;resizable=0;points=[];" parent="QxMFWHYsgoYalzhRIhGh-26" vertex="1" connectable="0">
          <mxGeometry x="0.098" y="-3" relative="1" as="geometry">
            <mxPoint as="offset" />
          </mxGeometry>
        </mxCell>
        <mxCell id="QxMFWHYsgoYalzhRIhGh-18" value="Ažuriranje podataka o hrani" style="rounded=1;whiteSpace=wrap;html=1;" parent="1" vertex="1">
          <mxGeometry x="560" y="460" width="120" height="60" as="geometry" />
        </mxCell>
        <mxCell id="QxMFWHYsgoYalzhRIhGh-19" style="edgeStyle=orthogonalEdgeStyle;rounded=0;orthogonalLoop=1;jettySize=auto;html=1;entryX=-0.029;entryY=0.49;entryDx=0;entryDy=0;entryPerimeter=0;" parent="1" source="QxMFWHYsgoYalzhRIhGh-12" target="QxMFWHYsgoYalzhRIhGh-18" edge="1">
          <mxGeometry relative="1" as="geometry" />
        </mxCell>
        <mxCell id="QxMFWHYsgoYalzhRIhGh-23" value="" style="endArrow=classic;html=1;rounded=0;" parent="1" edge="1">
          <mxGeometry width="50" height="50" relative="1" as="geometry">
            <mxPoint x="260" y="270" as="sourcePoint" />
            <mxPoint x="330" y="320" as="targetPoint" />
          </mxGeometry>
        </mxCell>
        <mxCell id="QxMFWHYsgoYalzhRIhGh-24" value="Pregled unosa hrane" style="edgeLabel;html=1;align=center;verticalAlign=middle;resizable=0;points=[];rotation=36;" parent="QxMFWHYsgoYalzhRIhGh-23" vertex="1" connectable="0">
          <mxGeometry x="-0.1206" y="2" relative="1" as="geometry">
            <mxPoint x="8" y="-10" as="offset" />
          </mxGeometry>
        </mxCell>
        <mxCell id="QxMFWHYsgoYalzhRIhGh-28" value="Statistika prehrane" style="rounded=1;whiteSpace=wrap;html=1;" parent="1" vertex="1">
          <mxGeometry x="560" y="210" width="120" height="60" as="geometry" />
        </mxCell>
        <mxCell id="QxMFWHYsgoYalzhRIhGh-31" value="" style="endArrow=classic;html=1;rounded=0;" parent="1" edge="1">
          <mxGeometry width="50" height="50" relative="1" as="geometry">
            <mxPoint x="550" y="270" as="sourcePoint" />
            <mxPoint x="480" y="330" as="targetPoint" />
          </mxGeometry>
        </mxCell>
        <mxCell id="QxMFWHYsgoYalzhRIhGh-32" value="Dnevni, tjedni izvještaji" style="edgeLabel;html=1;align=center;verticalAlign=middle;resizable=0;points=[];rotation=321;" parent="QxMFWHYsgoYalzhRIhGh-31" vertex="1" connectable="0">
          <mxGeometry x="0.1245" relative="1" as="geometry">
            <mxPoint x="-1" y="-24" as="offset" />
          </mxGeometry>
        </mxCell>
      </root>
    </mxGraphModel>
  </diagram>
</mxfile>
